<svg width="176" height="50" viewBox="0 0 176 50" fill="none" xmlns="http://www.w3.org/2000/svg">
<circle cx="25.5" cy="25" r="25" fill="#0077FF"/>
<path d="M26 10.75C19.7868 10.75 14.75 14.3652 14.75 19.75C14.75 23.8284 19.1394 31.8337 21.7409 34.75H30.2591C32.8606 31.8337 37.25 23.8284 37.25 19.75C37.25 14.3652 32.2132 10.75 26 10.75Z" stroke="white" stroke-width="2" stroke-linecap="round" stroke-linejoin="round"/>
<path d="M26 10.75C22.272 10.75 19.25 14.3652 19.25 19.75C19.25 23.8284 21.8836 31.8337 23.4445 34.75" stroke="white" stroke-width="2" stroke-linecap="round" stroke-linejoin="round"/>
<path d="M26 10.75C29.728 10.75 32.75 14.3652 32.75 19.75C32.75 23.8284 30.1164 31.8337 28.5555 34.75" stroke="white" stroke-width="2" stroke-linecap="round" stroke-linejoin="round"/>
<path d="M26 10.75C24.7573 10.75 23.75 14.3652 23.75 19.75C23.75 23.8284 24.6279 31.8337 25.1482 34.75" stroke="white" stroke-width="2" stroke-linecap="round" stroke-linejoin="round"/>
<path d="M26 10.75C27.2427 10.75 28.25 14.3652 28.25 19.75C28.25 23.8284 27.3721 31.8337 26.8518 34.75" stroke="white" stroke-width="2" stroke-linecap="round" stroke-linejoin="round"/>
<path d="M30.5 34.4775V39.25H21.5V34.4775" stroke="white" stroke-width="2" stroke-linecap="round" stroke-linejoin="round"/>
<path d="M56.7 35.5L63.275 18H66.15L72.725 35.5H69.05L67.875 32.025H61.45L60.275 35.5H56.7ZM62.5 29.025H66.85L64.7 22.675L62.5 29.025ZM79.2174 35.775C77.4507 35.775 76.0174 35.2583 74.9174 34.225C73.8174 33.175 73.2674 31.5917 73.2674 29.475C73.2674 28.1583 73.509 27.0333 73.9924 26.1C74.4924 25.15 75.1757 24.425 76.0424 23.925C76.909 23.4083 77.909 23.15 79.0424 23.15C80.1757 23.15 81.134 23.425 81.9174 23.975C82.7174 24.5083 83.3257 25.25 83.7424 26.2C84.1591 27.15 84.3674 28.2417 84.3674 29.475V30.15H76.3674C76.4507 31.2667 76.7507 32.0333 77.2674 32.45C77.8007 32.85 78.4674 33.05 79.2674 33.05C80.0007 33.05 80.6007 32.875 81.0674 32.525C81.5341 32.175 81.9507 31.65 82.3174 30.95L84.6174 32.575C83.9674 33.725 83.1924 34.55 82.2924 35.05C81.4091 35.5333 80.3841 35.775 79.2174 35.775ZM76.4924 27.75H81.2674C80.9674 26.3167 80.209 25.6 78.9924 25.6C78.3257 25.6 77.784 25.7667 77.3674 26.1C76.9507 26.4333 76.659 26.9833 76.4924 27.75ZM86.8807 35.5V23.45H89.7057L89.9057 25.075C90.2057 24.4917 90.664 24.025 91.2807 23.675C91.8973 23.325 92.5473 23.15 93.2307 23.15C93.514 23.15 93.7723 23.175 94.0057 23.225C94.239 23.2583 94.439 23.3 94.6057 23.35V26.4C94.3557 26.3167 94.089 26.2583 93.8057 26.225C93.5223 26.175 93.1723 26.15 92.7557 26.15C91.989 26.15 91.339 26.4 90.8057 26.9C90.289 27.3833 90.0307 28.1 90.0307 29.05V35.5H86.8807ZM101.701 35.775C100.584 35.775 99.576 35.5167 98.676 35C97.7926 34.4833 97.0926 33.75 96.576 32.8C96.076 31.85 95.826 30.7417 95.826 29.475C95.826 28.1917 96.076 27.0833 96.576 26.15C97.0926 25.2 97.7926 24.4667 98.676 23.95C99.576 23.4167 100.584 23.15 101.701 23.15C102.834 23.15 103.843 23.4167 104.726 23.95C105.609 24.4667 106.301 25.2 106.801 26.15C107.318 27.0833 107.576 28.1917 107.576 29.475C107.576 30.7417 107.318 31.85 106.801 32.8C106.301 33.75 105.609 34.4833 104.726 35C103.843 35.5167 102.834 35.775 101.701 35.775ZM101.701 32.925C102.501 32.925 103.151 32.6333 103.651 32.05C104.168 31.45 104.426 30.5917 104.426 29.475C104.426 28.3417 104.168 27.4833 103.651 26.9C103.151 26.3 102.501 26 101.701 26C100.901 26 100.251 26.3 99.751 26.9C99.2676 27.4833 99.026 28.3417 99.026 29.475C99.026 30.5917 99.2676 31.45 99.751 32.05C100.251 32.6333 100.901 32.925 101.701 32.925ZM113.509 35.5L107.384 18H110.859L115.159 31.125L119.484 18H122.959L116.809 35.5H113.509ZM124.975 35.5V23.45H128.125V35.5H124.975ZM126.525 21.65C125.992 21.65 125.534 21.4583 125.15 21.075C124.784 20.6917 124.6 20.2333 124.6 19.7C124.6 19.1667 124.784 18.7167 125.15 18.35C125.534 17.9667 125.992 17.775 126.525 17.775C127.059 17.775 127.509 17.9667 127.875 18.35C128.259 18.7167 128.45 19.1667 128.45 19.7C128.45 20.2333 128.259 20.6917 127.875 21.075C127.509 21.4583 127.059 21.65 126.525 21.65ZM135.714 35.75C134.747 35.75 133.814 35.5917 132.914 35.275C132.03 34.9417 131.23 34.4 130.514 33.65L132.439 31.525C133.389 32.525 134.539 33.025 135.889 33.025C136.522 33.025 136.964 32.95 137.214 32.8C137.464 32.6333 137.589 32.3333 137.589 31.9C137.589 31.7167 137.522 31.5583 137.389 31.425C137.272 31.275 137.014 31.1417 136.614 31.025C136.23 30.8917 135.647 30.75 134.864 30.6C133.647 30.3667 132.705 29.9667 132.039 29.4C131.389 28.8333 131.064 27.9833 131.064 26.85C131.064 26.1 131.264 25.45 131.664 24.9C132.064 24.3333 132.605 23.9 133.289 23.6C133.989 23.2833 134.772 23.125 135.639 23.125C137.539 23.125 139.072 23.6583 140.239 24.725L138.514 26.975C138.114 26.5917 137.664 26.3167 137.164 26.15C136.68 25.9667 136.189 25.875 135.689 25.875C135.139 25.875 134.764 25.9667 134.564 26.15C134.364 26.3167 134.264 26.5167 134.264 26.75C134.264 26.9167 134.314 27.0667 134.414 27.2C134.514 27.3333 134.73 27.4667 135.064 27.6C135.397 27.7167 135.914 27.8583 136.614 28.025C137.997 28.3417 139.039 28.825 139.739 29.475C140.455 30.1083 140.814 30.9583 140.814 32.025C140.814 33.275 140.33 34.2083 139.364 34.825C138.414 35.4417 137.197 35.75 135.714 35.75ZM143.262 35.5V23.45H146.412V35.5H143.262ZM144.812 21.65C144.278 21.65 143.82 21.4583 143.437 21.075C143.07 20.6917 142.887 20.2333 142.887 19.7C142.887 19.1667 143.07 18.7167 143.437 18.35C143.82 17.9667 144.278 17.775 144.812 17.775C145.345 17.775 145.795 17.9667 146.162 18.35C146.545 18.7167 146.737 19.1667 146.737 19.7C146.737 20.2333 146.545 20.6917 146.162 21.075C145.795 21.4583 145.345 21.65 144.812 21.65ZM154.875 35.775C153.758 35.775 152.75 35.5167 151.85 35C150.966 34.4833 150.266 33.75 149.75 32.8C149.25 31.85 149 30.7417 149 29.475C149 28.1917 149.25 27.0833 149.75 26.15C150.266 25.2 150.966 24.4667 151.85 23.95C152.75 23.4167 153.758 23.15 154.875 23.15C156.008 23.15 157.016 23.4167 157.9 23.95C158.783 24.4667 159.475 25.2 159.975 26.15C160.491 27.0833 160.75 28.1917 160.75 29.475C160.75 30.7417 160.491 31.85 159.975 32.8C159.475 33.75 158.783 34.4833 157.9 35C157.016 35.5167 156.008 35.775 154.875 35.775ZM154.875 32.925C155.675 32.925 156.325 32.6333 156.825 32.05C157.341 31.45 157.6 30.5917 157.6 29.475C157.6 28.3417 157.341 27.4833 156.825 26.9C156.325 26.3 155.675 26 154.875 26C154.075 26 153.425 26.3 152.925 26.9C152.441 27.4833 152.2 28.3417 152.2 29.475C152.2 30.5917 152.441 31.45 152.925 32.05C153.425 32.6333 154.075 32.925 154.875 32.925ZM163.053 35.5V23.45H165.853L166.028 24.8C166.361 24.3667 166.786 23.9833 167.303 23.65C167.836 23.3167 168.461 23.15 169.178 23.15C170.428 23.15 171.444 23.55 172.228 24.35C173.028 25.15 173.428 26.3333 173.428 27.9V35.5H170.278V28.675C170.278 27.7917 170.103 27.125 169.753 26.675C169.419 26.225 168.961 26 168.378 26C167.744 26 167.219 26.2333 166.803 26.7C166.403 27.15 166.203 27.8667 166.203 28.85V35.5H163.053Z" fill="#333333"/>
</svg>
